<svg xmlns="http://www.w3.org/2000/svg" width="30" height="30" fill="none" viewBox="0 0 30 30">
  <path stroke="#000" stroke-linecap="round" stroke-linejoin="round" stroke-width="2" d="M6.25 6h17.5a1.5 1.5 0 011.5 1.5V25a1.5 1.5 0 01-1.5 1.5H6.25a1.5 1.5 0 01-1.5-1.5V7.5A1.5 1.5 0 016.25 6zM20 2.5v5M10 2.5v5M3.75 12.5h22.5"/>
  <path fill="#000" d="M10.436 20.97a35.03 35.03 0 001.377-1.198c.342-.324.627-.66.855-1.008.228-.348.342-.69.342-1.026 0-.306-.072-.546-.216-.72-.144-.174-.366-.26-.666-.26-.3 0-.531.101-.693.305-.162.198-.246.471-.252.82H9.959c.024-.72.237-1.267.639-1.639.408-.372.924-.558 1.548-.558.684 0 1.209.183 1.575.55.366.36.549.836.549 1.43 0 .468-.126.915-.378 1.341-.252.426-.54.798-.864 1.116-.324.312-.747.69-1.27 1.134h2.656v1.044H9.968v-.936l.468-.396zm4.456-3.412c.03-.6.24-1.062.63-1.386.396-.33.915-.495 1.557-.495.438 0 .813.078 1.125.234.312.15.546.357.702.621.162.258.243.552.243.882 0 .378-.099.7-.297.963a1.418 1.418 0 01-.693.522v.036c.348.108.618.3.81.576.198.276.297.63.297 1.062 0 .36-.084.681-.252.963a1.678 1.678 0 01-.729.666c-.318.156-.702.234-1.152.234-.678 0-1.23-.17-1.656-.513-.426-.342-.65-.846-.675-1.512h1.224c.012.294.111.531.297.711.192.174.453.261.783.261.306 0 .54-.084.702-.252a.92.92 0 00.252-.666c0-.36-.114-.618-.342-.774-.228-.156-.582-.234-1.062-.234h-.26v-1.035h.26c.852 0 1.278-.285 1.278-.855 0-.258-.078-.459-.234-.603-.15-.144-.369-.216-.657-.216-.282 0-.5.078-.657.234a.92.92 0 00-.26.576h-1.234z"/>
</svg>
