<svg xmlns="http://www.w3.org/2000/svg" width="140" height="41" fill="none" viewBox="0 0 140 41">
  <path fill="#fff" d="M1.314 33L3.29 20.516H.5l.681-4.284h2.79l.746-4.864h5.91l-.78 4.864h3.005l-.68 4.284H9.167L7.207 33H1.315zm10.607 0l2.657-16.768h5.677l-.415 2.856c.52-1.063 1.218-1.87 2.092-2.424.874-.553 1.893-.83 3.055-.83.121 0 .26.011.415.033.155.011.398.044.73.1l-1.179 5.263a12.99 12.99 0 00-1.045-.2 6.337 6.337 0 00-.897-.066c-1.14 0-2.042.36-2.706 1.079-.653.708-1.101 1.81-1.345 3.304L17.765 33h-5.844zm20.419-7.786c0 1.073.326 1.937.98 2.59.652.653 1.516.98 2.59.98 1.172 0 2.146-.455 2.921-1.362.786-.919 1.179-2.064 1.179-3.437 0-1.04-.327-1.881-.98-2.523-.653-.653-1.505-.98-2.556-.98-1.196 0-2.186.449-2.972 1.345-.775.897-1.162 2.025-1.162 3.387zm6.524 5.545c-.808.94-1.71 1.654-2.706 2.141a7.23 7.23 0 01-3.187.714c-1.926 0-3.509-.725-4.748-2.174-1.229-1.45-1.843-3.332-1.843-5.645 0-2.9.835-5.307 2.507-7.222 1.67-1.915 3.757-2.872 6.258-2.872 1.163 0 2.203.244 3.122.73.918.477 1.748 1.218 2.49 2.225l.382-2.424h5.611L44.094 33h-5.512l.282-2.241zm23.29-13.298l-1.726 3.769c-.763-.543-1.466-.936-2.108-1.18a5.15 5.15 0 00-1.91-.381c-.53 0-.973.122-1.327.365-.343.244-.515.543-.515.897 0 .509.576.985 1.727 1.427.509.189.907.349 1.195.482 1.605.697 2.728 1.422 3.37 2.175.642.741.963 1.67.963 2.789 0 1.76-.68 3.176-2.042 4.25-1.361 1.062-3.176 1.593-5.445 1.593-1.284 0-2.513-.171-3.686-.514a13.202 13.202 0 01-3.387-1.528l1.976-4.017c1.129.697 2.075 1.19 2.839 1.477.764.288 1.483.432 2.158.432.587 0 1.057-.127 1.411-.382.354-.265.531-.603.531-1.012 0-.631-.813-1.279-2.44-1.943-.487-.2-.863-.354-1.129-.465-1.295-.575-2.214-1.2-2.756-1.876-.542-.675-.813-1.516-.813-2.523 0-1.605.67-2.939 2.008-4.001 1.34-1.063 3.06-1.594 5.164-1.594a10.858 10.858 0 015.943 1.76zM63.383 33L67.5 7.268h5.81l-1.493 9.03c-.067.444-.144.88-.233 1.312-.077.42-.171.836-.282 1.245.919-1.106 1.832-1.909 2.74-2.407a6.076 6.076 0 012.971-.747c1.738 0 3.082.47 4.034 1.411.963.93 1.445 2.236 1.445 3.918 0 .576-.1 1.533-.3 2.872a5.97 5.97 0 01-.032.3L80.764 33h-5.927l1.395-8.882c.044-.254.077-.503.1-.747.033-.243.05-.454.05-.63 0-.731-.195-1.285-.582-1.66-.387-.377-.957-.565-1.71-.565-1.03 0-1.837.37-2.424 1.112-.575.741-.99 1.926-1.245 3.553L69.226 33h-5.844zM96.424 24.052v-5.097h13.016c.011.166.017.349.017.548.011.2.016.492.016.88 0 4.183-1.106 7.432-3.32 9.745-2.202 2.302-5.307 3.453-9.314 3.453-1.97 0-3.724-.293-5.262-.88-1.528-.598-2.894-1.505-4.1-2.723-1.152-1.162-2.048-2.534-2.69-4.117a13.454 13.454 0 01-.947-4.997c0-1.815.31-3.48.93-4.997.62-1.527 1.544-2.9 2.773-4.117a12.332 12.332 0 014.183-2.69c1.583-.608 3.287-.913 5.114-.913 2.38 0 4.482.47 6.308 1.412 1.837.94 3.381 2.34 4.632 4.2l-5.744 2.756c-.686-.941-1.461-1.638-2.324-2.092-.853-.465-1.81-.697-2.873-.697-1.98 0-3.541.664-4.681 1.992-1.14 1.317-1.71 3.12-1.71 5.412 0 2.313.57 4.134 1.71 5.462 1.14 1.328 2.7 1.992 4.681 1.992 1.683 0 3.083-.41 4.201-1.229 1.129-.83 1.787-1.93 1.975-3.303h-6.59zm41.719-3.154c0 1.748-.321 3.386-.963 4.913a12.486 12.486 0 01-2.806 4.101 13.364 13.364 0 01-4.25 2.773 13.163 13.163 0 01-4.964.962c-1.737 0-3.403-.32-4.997-.962a12.848 12.848 0 01-4.183-2.773 12.424 12.424 0 01-2.856-4.117 12.588 12.588 0 01-.963-4.898c0-1.737.321-3.37.963-4.897a12.424 12.424 0 012.856-4.117 12.629 12.629 0 014.183-2.756c1.594-.653 3.26-.98 4.997-.98 1.727 0 3.387.327 4.981.98a12.717 12.717 0 014.233 2.756 12.375 12.375 0 012.789 4.1c.653 1.539.98 3.177.98 4.915zm-12.983 7.138c1.838 0 3.354-.675 4.549-2.025 1.207-1.35 1.81-3.055 1.81-5.113 0-2.037-.609-3.736-1.826-5.097-1.218-1.361-2.728-2.042-4.533-2.042-1.837 0-3.359.68-4.565 2.042-1.195 1.35-1.793 3.049-1.793 5.097 0 2.08.592 3.79 1.776 5.13 1.185 1.338 2.712 2.008 4.582 2.008z"/>
</svg>
